<svg xmlns="http://www.w3.org/2000/svg" viewBox="0 0 87 32" overflow="visible" id="svg-951331715_7892"><g><path d="M 16.218 18.122 C 15.058 21.44 11.402 22.51 9.468 22.51 C 7.253 22.617 5.355 21.797 3.422 21.797 C 2.437 21.797 1.418 22.011 0.328 22.689 C 0.047 22.867 -0.129 22.332 0.117 22.118 C 1.102 21.369 3 19.87 4.125 19.87 C 6.586 19.87 9.046 21.19 10.91 21.19 C 11.332 21.19 11.683 21.154 12.035 20.976 C 13.195 20.441 13.652 18.942 14.038 17.694 C 15.902 11.487 16.57 7.171 17.765 4.53 C 18.468 2.961 18.925 2.283 21.07 1.57 C 20.718 1.534 20.367 1.534 20.015 1.534 C 16.921 1.534 13.194 2.605 10.453 4.459 C 8.554 5.743 8.343 7.242 8.343 7.919 C 8.343 9.632 9.82 9.632 10.453 9.31 C 10.875 9.097 11.015 9.703 10.734 9.953 C 10.312 10.381 9.222 11.095 8.624 11.13 C 7.429 11.166 6.41 10.452 6.41 8.883 C 6.41 7.706 6.973 6.136 8.73 4.566 C 12.211 1.427 17.096 0 21.07 0 C 24.972 0 27.995 1.391 27.995 3.853 C 27.995 5.958 26.589 8.704 23.108 10.988 C 22.652 11.308 22.195 11.558 21.808 11.808 C 22.124 17.444 23.039 20.512 24.269 20.512 C 26.554 20.512 29.577 14.626 30.456 11.772 C 30.526 11.487 31.3 11.38 31.195 11.701 C 29.753 16.767 26.343 22.618 23.425 22.618 C 20.858 22.618 19.98 19.478 19.734 12.735 C 19.063 12.96 18.365 13.092 17.66 13.128 C 17.132 15.054 16.64 16.874 16.218 18.122 Z M 25.499 4.852 C 25.499 3.246 24.304 2.247 22.546 1.783 C 21.351 2.283 20.859 2.925 20.085 4.708 C 19.452 6.207 18.749 8.811 18.081 11.451 C 19.03 11.487 19.945 11.38 20.929 10.916 C 24.093 9.489 25.499 7.242 25.499 4.852 Z" fill="#ffffff"></path><path d="M 36.493 10.689 C 35.368 12.937 32.732 15.47 30.658 17.29 C 30.622 18.502 30.552 19.68 30.376 20.251 C 34.384 19.858 38.392 14.507 39.271 11.902 C 39.306 11.76 40.079 11.546 40.009 11.831 C 38.954 15.505 34.525 21.784 28.196 21.784 C 27.95 21.784 27.88 21.427 27.95 21.249 C 28.583 19.858 28.302 17.289 28.583 14.757 C 28.865 12.188 29.603 10.796 32.064 9.12 C 33.329 8.335 34.173 8.014 35.439 8.014 C 36.353 8.014 36.88 8.514 36.88 9.334 C 36.88 9.727 36.739 10.19 36.493 10.689 Z M 30.693 15.078 L 30.693 16.041 C 33.751 13.115 34.56 11.902 34.56 10.618 C 34.56 10.083 34.419 9.512 33.681 9.512 C 32.38 9.512 30.693 11.118 30.693 15.078 Z" fill="#ffffff"></path><path d="M 42.395 28.027 C 41.903 28.99 41.059 30.096 39.759 30.845 C 38.739 31.452 37.896 31.737 36.384 31.737 C 35.399 31.737 34.766 31.487 34.028 31.487 C 33.536 31.487 32.974 31.594 32.236 31.986 C 32.13 32.058 31.814 31.843 31.884 31.451 C 32.833 26.421 37.649 23.353 42.22 20.392 C 42.606 18.216 43.134 15.862 43.942 13.65 C 41.727 18.038 38.528 20.999 37.192 21.676 C 36.946 21.82 36.665 21.356 36.77 21.106 C 37.227 20.107 37.438 17.717 37.438 15.148 C 37.438 11.331 38.422 10.225 40.567 8.941 C 41.587 8.334 42.431 8.049 43.239 8.049 C 44.188 8.049 44.926 8.228 45.735 8.228 C 46.192 8.228 46.649 8.192 47.176 8.014 C 47.423 7.942 47.915 7.728 47.95 7.728 C 48.055 7.728 48.126 7.871 48.126 8.049 C 48.126 8.192 48.091 8.37 47.985 8.441 C 47.528 8.799 47.282 9.547 46.719 11.224 C 45.911 13.614 45.348 16.183 44.856 18.609 C 47.669 16.611 50.024 14.542 50.762 11.831 C 50.832 11.545 51.571 11.474 51.465 11.795 C 50.516 15.398 47.704 17.752 44.61 19.929 C 43.942 23.139 43.38 26.064 42.395 28.027 Z M 40.251 29.204 C 41.059 27.777 41.411 24.923 41.973 21.641 C 38.528 23.959 35.259 26.314 34.134 30.024 C 34.489 29.926 34.855 29.878 35.223 29.881 C 36.349 29.881 37.439 30.203 38.388 30.203 C 39.161 30.203 39.794 29.989 40.251 29.204 Z M 40.813 9.798 C 39.969 10.368 39.653 12.473 39.653 14.363 C 39.653 15.469 39.548 17.432 39.372 18.466 C 40.427 17.574 44.047 12.544 44.821 9.904 C 43.942 9.976 42.817 9.547 41.833 9.547 C 41.446 9.547 41.13 9.619 40.813 9.798 Z" fill="#ffffff"></path><path d="M 56.802 10.69 C 55.677 12.938 53.04 15.471 50.966 17.29 C 50.931 18.503 50.861 19.68 50.685 20.251 C 54.693 19.858 58.701 14.507 59.579 11.903 C 59.615 11.76 60.388 11.546 60.318 11.832 C 59.263 15.506 54.834 21.784 48.505 21.784 C 48.259 21.784 48.189 21.427 48.259 21.249 C 48.892 19.858 48.611 17.289 48.892 14.757 C 49.174 12.188 49.912 10.796 52.373 9.12 C 53.638 8.335 54.482 8.014 55.748 8.014 C 56.661 8.014 57.189 8.514 57.189 9.334 C 57.189 9.727 57.048 10.19 56.802 10.689 Z M 51.001 15.078 L 51.001 16.041 C 54.06 13.116 54.869 11.903 54.869 10.619 C 54.869 10.084 54.728 9.513 53.99 9.513 C 52.689 9.513 51.001 11.118 51.001 15.078 Z" fill="#ffffff"></path><path d="M 56.138 21.819 C 57.122 17.574 58.212 12.865 58.529 11.367 C 58.915 9.369 59.935 8.727 61.974 7.978 C 62.149 7.906 62.255 8.049 62.255 8.263 C 62.255 8.406 62.22 8.584 62.114 8.655 C 61.657 9.012 61.236 9.654 60.779 11.367 C 60.333 13.013 59.911 14.666 59.513 16.325 C 62.22 10.903 66.579 7.728 67.598 7.728 C 67.88 7.728 68.126 8.085 68.02 8.335 C 65.736 14.328 65.068 19.286 65.736 19.286 C 66.298 19.286 69.708 16.147 71.114 11.866 C 71.149 11.652 71.958 11.581 71.853 11.83 C 70.411 17.039 66.087 21.498 63.978 21.498 C 63.556 21.498 63.169 21.248 63.169 19.679 C 63.169 17.039 63.872 13.685 65.314 10.439 C 63.837 11.474 60.146 15.683 58.493 20.927 C 58.318 21.427 57.017 22.105 56.419 22.105 C 56.209 22.105 56.103 21.998 56.138 21.819 Z" fill="#ffffff"></path><path d="M 68.857 9.963 C 68.47 9.892 68.822 9.321 69.103 9.321 C 70.052 9.321 70.755 8.394 71.142 7.252 L 71.88 5.147 C 72.267 4.077 74.587 3.435 74.869 3.435 C 75.044 3.435 75.115 3.898 74.974 3.97 C 74.165 4.398 73.286 7.252 72.865 8.75 C 74.482 8.429 76.204 8.358 77.962 8.358 L 82.804 8.358 C 84.983 8.358 84.681 8.532 84.681 8.532 C 84.927 8.353 87.197 9.678 86.986 9.892 C 86.494 10.192 86.528 10.191 86.802 10.177 C 86.38 10.213 85.943 10.177 85.45 10.177 C 82.638 10.177 78.665 9.642 75.395 9.642 C 74.341 9.642 73.357 9.713 72.513 9.856 C 71.071 14.708 70.228 19.453 70.544 19.453 C 71.318 19.453 73.146 18.097 74.728 15.885 C 75.009 15.528 75.642 15.635 75.466 15.957 C 73.919 19.024 70.509 21.557 68.646 21.557 C 68.224 21.557 67.978 21.379 67.978 20.451 C 67.978 18.703 68.892 14.351 70.333 9.927 C 69.806 9.963 69.244 10.035 68.857 9.963 Z" fill="#ffffff"></path><path d="M 75.804 6.82 L 75.804 6.124 L 76.134 6.124 C 76.168 6.123 76.203 6.131 76.233 6.148 C 76.267 6.164 76.295 6.19 76.315 6.222 C 76.338 6.253 76.348 6.293 76.348 6.341 C 76.349 6.466 76.249 6.568 76.126 6.569 L 75.872 6.569 L 75.872 6.473 L 76.096 6.473 C 76.127 6.474 76.157 6.462 76.18 6.441 C 76.204 6.418 76.217 6.384 76.217 6.341 C 76.217 6.297 76.204 6.265 76.178 6.247 C 76.155 6.229 76.126 6.219 76.097 6.219 L 75.924 6.219 L 75.924 6.82 Z M 76.206 6.495 L 76.377 6.819 L 76.242 6.819 L 76.075 6.495 Z M 76.056 7.234 C 75.858 7.236 75.669 7.156 75.53 7.013 C 75.39 6.872 75.311 6.68 75.312 6.48 C 75.312 6.376 75.331 6.279 75.37 6.188 C 75.487 5.908 75.757 5.726 76.056 5.725 C 76.159 5.725 76.255 5.745 76.344 5.785 C 76.62 5.902 76.8 6.176 76.8 6.48 C 76.801 6.68 76.723 6.872 76.582 7.013 C 76.514 7.081 76.435 7.136 76.344 7.176 C 76.253 7.215 76.155 7.235 76.056 7.234 Z M 76.056 7.093 C 76.168 7.093 76.27 7.066 76.361 7.011 C 76.452 6.958 76.527 6.881 76.58 6.789 C 76.634 6.696 76.661 6.593 76.66 6.48 C 76.663 6.371 76.635 6.264 76.58 6.17 C 76.527 6.078 76.452 6.002 76.361 5.949 C 76.269 5.893 76.163 5.865 76.056 5.866 C 75.949 5.865 75.844 5.894 75.751 5.949 C 75.661 6.003 75.586 6.079 75.533 6.171 C 75.478 6.264 75.45 6.371 75.451 6.48 C 75.451 6.593 75.478 6.696 75.533 6.789 C 75.64 6.979 75.84 7.096 76.056 7.093 Z" fill="#ffffff"></path></g></svg>